<svg width="40" height="40" viewBox="0 0 40 40" fill="none" xmlns="http://www.w3.org/2000/svg">
<path d="M20.0084 1.66669C21.1027 1.66669 22.1863 1.88224 23.1974 2.30102C24.2084 2.71981 25.1271 3.33364 25.9009 4.10746C26.6747 4.88129 27.2886 5.79994 27.7074 6.81099C28.1261 7.82204 28.3417 8.90567 28.3417 10V13.3334H33.3417C33.7837 13.3334 34.2076 13.5089 34.5202 13.8215C34.8328 14.1341 35.0084 14.558 35.0084 15V35C35.0084 35.442 34.8328 35.866 34.5202 36.1785C34.2076 36.4911 33.7837 36.6667 33.3417 36.6667H6.67503C6.233 36.6667 5.80908 36.4911 5.49652 36.1785C5.18396 35.866 5.00836 35.442 5.00836 35V15C5.00836 14.558 5.18396 14.1341 5.49652 13.8215C5.80908 13.5089 6.233 13.3334 6.67503 13.3334H11.675V10C11.675 7.78988 12.553 5.67027 14.1158 4.10746C15.6786 2.54466 17.7982 1.66669 20.0084 1.66669ZM28.3417 18.3334H25.0084V20C25.0093 20.4247 25.1722 20.833 25.464 21.1416C25.7557 21.4501 26.1542 21.6357 26.5782 21.6604C27.0021 21.6851 27.4195 21.547 27.7451 21.2743C28.0707 21.0017 28.2799 20.615 28.33 20.1934L28.3417 19.9984V18.3317V18.3334ZM15.0084 18.3334H11.675V20C11.6759 20.4247 11.8389 20.833 12.1306 21.1416C12.4224 21.4501 12.8209 21.6357 13.2448 21.6604C13.6688 21.6851 14.0862 21.547 14.4117 21.2743C14.7373 21.0017 14.9465 20.615 14.9967 20.1934L15.0084 20V18.3334ZM20.0084 5.00002C18.7333 4.99992 17.5063 5.48697 16.5785 6.36155C15.6506 7.23613 15.0919 8.43216 15.0167 9.70502L15.0084 10V13.3334H25.0084V10C25.0084 8.72467 24.5212 7.4975 23.6462 6.56959C22.7713 5.64168 21.5748 5.08317 20.3017 5.00835L20.0084 5.00002Z" fill="#FCC21B"/>
</svg>
