<svg width="32" height="32" viewBox="0 0 32 32" fill="none" xmlns="http://www.w3.org/2000/svg">
<path d="M18.9334 3.83331C17.2979 3.83331 15.7293 4.48301 14.5729 5.63949C13.4164 6.79596 12.7667 8.36448 12.7667 9.99998V13.4333H9.46669C9.30135 13.4333 9.16669 13.5666 9.16669 13.7333V18.2666C9.16669 18.432 9.30002 18.5666 9.46669 18.5666H12.7667V27.8666C12.7667 28.032 12.9 28.1666 13.0667 28.1666H17.6C17.7654 28.1666 17.9 28.0333 17.9 27.8666V18.5666H21.2294C21.3667 18.5666 21.4867 18.4733 21.52 18.34L22.6534 13.8066C22.6645 13.7624 22.6654 13.7162 22.656 13.6716C22.6466 13.6269 22.6272 13.585 22.5992 13.549C22.5711 13.513 22.5353 13.4839 22.4943 13.4638C22.4533 13.4438 22.4083 13.4333 22.3627 13.4333H17.9V9.99998C17.9 9.86428 17.9267 9.72991 17.9787 9.60454C18.0306 9.47917 18.1067 9.36526 18.2027 9.2693C18.2986 9.17335 18.4125 9.09723 18.5379 9.0453C18.6633 8.99337 18.7977 8.96665 18.9334 8.96665H22.4C22.5654 8.96665 22.7 8.83331 22.7 8.66665V4.13331C22.7 3.96798 22.5667 3.83331 22.4 3.83331H18.9334Z" fill="#FCC21B"/>
</svg>
