<svg width="32" height="32" viewBox="0 0 32 32" fill="none" xmlns="http://www.w3.org/2000/svg">
<path d="M17.3707 2.66802C18.3436 2.66429 19.3166 2.67407 20.2893 2.69736L20.548 2.70669C20.8467 2.71736 21.1413 2.73069 21.4973 2.74669C22.916 2.81336 23.884 3.03736 24.7333 3.36669C25.6133 3.70536 26.3547 4.16402 27.096 4.90536C27.7738 5.5715 28.2984 6.37728 28.6333 7.26669C28.9627 8.11602 29.1867 9.08535 29.2533 10.504C29.2693 10.8587 29.2827 11.1547 29.2933 11.4534L29.3013 11.712C29.325 12.6843 29.3352 13.6568 29.332 14.6294L29.3333 15.624V17.3707C29.3366 18.3437 29.3264 19.3167 29.3027 20.2894L29.2947 20.548C29.284 20.8467 29.2707 21.1414 29.2547 21.4974C29.188 22.916 28.9613 23.884 28.6333 24.7334C28.2995 25.6237 27.7748 26.4302 27.096 27.096C26.4293 27.7738 25.6231 28.2984 24.7333 28.6334C23.884 28.9627 22.916 29.1867 21.4973 29.2534C21.1413 29.2694 20.8467 29.2827 20.548 29.2934L20.2893 29.3014C19.3166 29.3251 18.3436 29.3353 17.3707 29.332L16.376 29.3334H14.6307C13.6577 29.3366 12.6847 29.3264 11.712 29.3027L11.4533 29.2947C11.1368 29.2832 10.8204 29.2699 10.504 29.2547C9.08533 29.188 8.11733 28.9614 7.26666 28.6334C6.37691 28.2991 5.57098 27.7745 4.90533 27.096C4.22672 26.4297 3.70163 25.6234 3.36666 24.7334C3.03733 23.884 2.81333 22.916 2.74666 21.4974C2.73181 21.181 2.71848 20.8645 2.70666 20.548L2.7 20.2894C2.67541 19.3167 2.6643 18.3437 2.66666 17.3707V14.6294C2.66294 13.6568 2.67272 12.6843 2.696 11.712L2.70533 11.4534C2.716 11.1547 2.72933 10.8587 2.74533 10.504C2.812 9.08402 3.036 8.11736 3.36533 7.26669C3.70049 6.37685 4.22661 5.57128 4.90666 4.90669C5.57186 4.22769 6.37728 3.70212 7.26666 3.36669C8.11733 3.03736 9.084 2.81336 10.504 2.74669L11.4533 2.70669L11.712 2.70002C12.6842 2.67545 13.6568 2.66434 14.6293 2.66669L17.3707 2.66802ZM16 9.33469C15.1167 9.3222 14.2397 9.48539 13.42 9.81478C12.6003 10.1442 11.8542 10.6332 11.2251 11.2534C10.5961 11.8737 10.0965 12.6127 9.75558 13.4277C9.41463 14.2427 9.23905 15.1173 9.23905 16.0007C9.23905 16.8841 9.41463 17.7587 9.75558 18.5737C10.0965 19.3886 10.5961 20.1277 11.2251 20.7479C11.8542 21.3682 12.6003 21.8572 13.42 22.1866C14.2397 22.516 15.1167 22.6792 16 22.6667C17.7681 22.6667 19.4638 21.9643 20.714 20.7141C21.9643 19.4638 22.6667 17.7681 22.6667 16C22.6667 14.2319 21.9643 12.5362 20.714 11.286C19.4638 10.0357 17.7681 9.33469 16 9.33469ZM16 12.0014C16.5313 11.9916 17.0593 12.0878 17.5531 12.2843C18.0468 12.4808 18.4964 12.7738 18.8757 13.1461C19.255 13.5184 19.5562 13.9625 19.7619 14.4525C19.9676 14.9425 20.0736 15.4686 20.0737 16C20.0738 16.5314 19.968 17.0576 19.7624 17.5476C19.5569 18.0377 19.2558 18.4819 18.8767 18.8543C18.4975 19.2267 18.048 19.5198 17.5543 19.7166C17.0606 19.9133 16.5327 20.0096 16.0013 20C14.9405 20 13.923 19.5786 13.1729 18.8284C12.4228 18.0783 12.0013 17.0609 12.0013 16C12.0013 14.9392 12.4228 13.9217 13.1729 13.1716C13.923 12.4214 14.9405 12 16.0013 12L16 12.0014ZM23 7.33469C22.5699 7.3519 22.1631 7.53489 21.8648 7.84532C21.5666 8.15575 21.4 8.56953 21.4 9.00002C21.4 9.43051 21.5666 9.8443 21.8648 10.1547C22.1631 10.4652 22.5699 10.6481 23 10.6654C23.442 10.6654 23.8659 10.4898 24.1785 10.1772C24.4911 9.86464 24.6667 9.44072 24.6667 8.99869C24.6667 8.55666 24.4911 8.13274 24.1785 7.82018C23.8659 7.50762 23.442 7.33202 23 7.33202V7.33469Z" fill="#FCC21B"/>
</svg>
